<svg xmlns="http://www.w3.org/2000/svg" xmlns:xlink="http://www.w3.org/1999/xlink" width="500" zoomAndPan="magnify" viewBox="0 0 375 374.999991" height="500" preserveAspectRatio="xMidYMid meet" version="1.0"><defs><clipPath id="07c770efba"><path d="M 4 6 L 370 6 L 370 370.839844 L 4 370.839844 Z M 4 6 " clip-rule="nonzero"/></clipPath><clipPath id="c86ffd1593"><path d="M 4 6 L 370 6 L 370 370.839844 L 4 370.839844 Z M 4 6 " clip-rule="nonzero"/></clipPath></defs><g clip-path="url(#07c770efba)"><path fill="#000000" d="M 343.488281 94.890625 C 343.429688 94.789062 343.367188 94.6875 343.308594 94.585938 C 342.683594 93.546875 342.050781 92.511719 341.402344 91.484375 C 341.371094 91.4375 341.34375 91.390625 341.3125 91.34375 C 340.824219 90.566406 340.34375 89.789062 339.84375 89.023438 C 316.921875 53.769531 283.328125 28.054688 243.917969 15.179688 C 243.894531 15.171875 243.867188 15.164062 243.839844 15.152344 C 243.070312 14.902344 242.304688 14.652344 241.53125 14.414062 C 228.09375 10.1875 214.195312 7.515625 200.15625 6.511719 C 199.8125 6.488281 199.46875 6.46875 199.125 6.449219 C 165.6875 4.140625 132.511719 11.078125 102.675781 26.695312 C 91.996094 32.242188 81.863281 38.839844 72.484375 46.398438 C 72.441406 46.433594 72.417969 46.480469 72.386719 46.523438 C 39.765625 72.761719 17.34375 109.117188 8.546875 150.621094 C -0.0273438 191.078125 5.214844 232.3125 23.242188 268.835938 C 31.027344 284.726562 41.0625 299.363281 53.058594 312.3125 C 71.5625 332.394531 94.214844 347.929688 119.617188 357.957031 C 120.675781 358.382812 121.742188 358.785156 122.808594 359.1875 C 122.910156 359.226562 123.007812 359.265625 123.109375 359.304688 C 132.488281 362.820312 142.144531 365.554688 152.03125 367.480469 C 160.324219 369.09375 168.667969 370.117188 177.042969 370.566406 C 177.355469 370.585938 177.664062 370.605469 177.976562 370.621094 C 178.15625 370.632812 178.335938 370.636719 178.515625 370.644531 C 181.453125 370.785156 184.386719 370.863281 187.320312 370.863281 C 215.871094 370.863281 243.953125 364.125 269.625 351.007812 C 280.894531 345.292969 291.566406 338.417969 301.425781 330.472656 C 301.472656 330.433594 301.5 330.378906 301.53125 330.332031 C 334.148438 304.097656 356.5625 267.746094 365.359375 226.25 C 374.980469 180.855469 367.203125 134.488281 343.488281 94.890625 Z M 211.105469 200.300781 C 211.085938 200.339844 211.070312 200.378906 211.050781 200.417969 C 210.898438 200.722656 210.734375 201.027344 210.566406 201.328125 C 210.511719 201.429688 210.460938 201.535156 210.40625 201.632812 C 210.257812 201.894531 210.097656 202.152344 209.941406 202.410156 C 209.863281 202.539062 209.789062 202.675781 209.707031 202.804688 C 209.191406 203.621094 208.632812 204.398438 208.046875 205.144531 C 205.652344 208.179688 202.667969 210.628906 199.269531 212.371094 C 197.269531 213.394531 195.128906 214.175781 192.882812 214.683594 C 190.644531 215.191406 188.386719 215.40625 186.152344 215.34375 C 183.136719 215.257812 180.160156 214.667969 177.332031 213.578125 C 175.695312 212.949219 174.105469 212.152344 172.585938 211.191406 C 171.390625 210.4375 170.277344 209.601562 169.242188 208.703125 C 160.277344 200.871094 157.507812 187.914062 162.5625 177.078125 C 162.636719 176.921875 162.707031 176.761719 162.78125 176.601562 C 162.808594 176.554688 162.828125 176.5 162.855469 176.449219 C 162.996094 176.164062 163.152344 175.882812 163.304688 175.597656 C 163.371094 175.476562 163.433594 175.355469 163.5 175.234375 C 163.621094 175.019531 163.753906 174.8125 163.878906 174.601562 C 163.984375 174.421875 164.085938 174.242188 164.199219 174.066406 C 168.035156 167.988281 174.011719 163.769531 181.023438 162.183594 C 181.496094 162.078125 181.96875 161.984375 182.441406 161.902344 C 182.582031 161.878906 182.722656 161.863281 182.863281 161.839844 C 183.195312 161.789062 183.527344 161.738281 183.859375 161.699219 C 184.035156 161.679688 184.210938 161.664062 184.386719 161.648438 C 184.683594 161.617188 184.980469 161.59375 185.277344 161.574219 C 185.464844 161.558594 185.652344 161.550781 185.839844 161.542969 C 186.128906 161.53125 186.414062 161.523438 186.703125 161.519531 C 186.875 161.519531 187.046875 161.519531 187.222656 161.519531 C 187.753906 161.523438 188.28125 161.539062 188.8125 161.574219 C 188.839844 161.578125 188.871094 161.578125 188.902344 161.582031 C 189.453125 161.621094 190.003906 161.679688 190.554688 161.757812 C 190.707031 161.777344 190.855469 161.800781 191.007812 161.824219 C 191.285156 161.863281 191.5625 161.917969 191.84375 161.972656 C 192.011719 162.003906 192.183594 162.027344 192.351562 162.0625 C 192.460938 162.085938 192.570312 162.101562 192.683594 162.128906 C 193.21875 162.246094 193.75 162.378906 194.277344 162.53125 C 194.410156 162.566406 194.542969 162.609375 194.671875 162.648438 C 195.101562 162.777344 195.523438 162.917969 195.945312 163.066406 C 196.078125 163.113281 196.210938 163.160156 196.34375 163.210938 C 196.863281 163.40625 197.375 163.613281 197.882812 163.839844 C 197.976562 163.882812 198.066406 163.925781 198.15625 163.96875 C 198.585938 164.167969 199.011719 164.375 199.429688 164.597656 C 199.570312 164.667969 199.707031 164.742188 199.84375 164.816406 C 200.335938 165.085938 200.824219 165.367188 201.304688 165.671875 C 201.3125 165.671875 201.316406 165.675781 201.320312 165.679688 C 201.679688 165.90625 202.03125 166.144531 202.378906 166.382812 C 202.398438 166.398438 202.421875 166.410156 202.441406 166.425781 C 202.621094 166.550781 202.796875 166.6875 202.972656 166.820312 C 203.164062 166.960938 203.359375 167.097656 203.546875 167.246094 C 203.636719 167.316406 203.722656 167.390625 203.8125 167.464844 C 204.082031 167.679688 204.351562 167.898438 204.613281 168.121094 C 204.625 168.132812 204.636719 168.148438 204.652344 168.15625 C 213.769531 176.105469 216.492188 189.359375 211.105469 200.300781 Z M 211.105469 200.300781 " fill-opacity="1" fill-rule="nonzero"/></g><path fill="#ca5038" d="M 126.472656 208.15625 L 15.3125 245.828125 C 14.144531 242.34375 13.078125 238.832031 12.125 235.289062 L 125.628906 205.359375 C 125.886719 206.296875 126.171875 207.230469 126.472656 208.15625 Z M 9.96875 150.921875 C 7.121094 164.355469 5.8125 177.871094 5.996094 191.269531 L 123.339844 188.960938 C 123.3125 186.273438 123.449219 183.589844 123.761719 180.933594 C 124.65625 173.355469 126.894531 166.066406 130.414062 159.257812 C 131.25 157.644531 132.171875 156.035156 133.160156 154.46875 C 136.789062 148.71875 141.269531 143.644531 146.464844 139.355469 L 72.855469 48.019531 C 40.734375 74.019531 18.65625 109.9375 9.96875 150.921875 Z M 247.433594 168.714844 C 247.734375 169.640625 248.019531 170.574219 248.277344 171.511719 L 361.703125 141.597656 C 360.757812 138.066406 359.714844 134.550781 358.546875 131.058594 Z M 367.789062 185.605469 L 250.566406 187.910156 C 250.59375 190.597656 250.457031 193.28125 250.140625 195.9375 C 249.25 203.515625 247.011719 210.808594 243.488281 217.609375 C 242.65625 219.230469 241.730469 220.839844 240.746094 222.402344 C 237.117188 228.148438 232.636719 233.222656 227.441406 237.515625 L 301.042969 328.847656 C 345.105469 293.097656 368.546875 239.691406 367.789062 185.605469 Z M 367.789062 185.605469 " fill-opacity="1" fill-rule="nonzero"/><path fill="#eac255" d="M 197.941406 12.480469 C 196.507812 15.917969 195.316406 19.492188 195.675781 23.261719 C 196.03125 27.101562 197.859375 30.742188 199.621094 34.113281 C 204.125 42.773438 208.726562 51.390625 213.257812 60.046875 C 216.988281 67.160156 220.546875 74.433594 221.773438 82.449219 C 222.363281 86.335938 222.226562 90.40625 221.238281 94.226562 C 220.167969 98.355469 218.234375 102.207031 217.394531 106.398438 C 215.851562 114 217.34375 121.878906 218.933594 129.332031 C 219.246094 130.800781 219.601562 132.386719 219.894531 134.003906 C 220.082031 134.113281 220.261719 134.230469 220.453125 134.347656 C 220.605469 134.441406 220.765625 134.542969 220.925781 134.644531 C 222.457031 135.613281 223.941406 136.644531 225.375 137.734375 C 225.5 137.828125 225.621094 137.929688 225.742188 138.027344 C 226.324219 138.472656 226.90625 138.925781 227.472656 139.394531 C 227.742188 139.621094 228.003906 139.855469 228.269531 140.085938 C 228.679688 140.433594 229.09375 140.785156 229.496094 141.144531 C 229.808594 141.425781 230.109375 141.722656 230.417969 142.007812 C 230.761719 142.332031 231.109375 142.648438 231.441406 142.976562 C 231.765625 143.289062 232.074219 143.617188 232.386719 143.9375 C 232.699219 144.253906 233.011719 144.566406 233.3125 144.886719 C 233.625 145.21875 233.925781 145.5625 234.230469 145.898438 C 234.523438 146.226562 234.820312 146.546875 235.105469 146.878906 C 235.398438 147.21875 235.679688 147.566406 235.964844 147.914062 C 236.25 148.257812 236.535156 148.59375 236.8125 148.945312 C 237.085938 149.285156 237.34375 149.632812 237.605469 149.980469 C 237.882812 150.347656 238.164062 150.710938 238.433594 151.082031 C 238.679688 151.417969 238.914062 151.761719 239.152344 152.105469 C 239.425781 152.5 239.703125 152.890625 239.96875 153.289062 C 240.1875 153.617188 240.394531 153.957031 240.609375 154.289062 C 240.878906 154.710938 241.152344 155.132812 241.410156 155.5625 C 241.601562 155.882812 241.785156 156.207031 241.972656 156.527344 C 242.238281 156.984375 242.503906 157.4375 242.757812 157.898438 C 242.925781 158.207031 243.082031 158.515625 243.246094 158.824219 C 243.503906 159.3125 243.761719 159.800781 244.007812 160.296875 C 244.148438 160.585938 244.285156 160.878906 244.421875 161.171875 C 244.671875 161.695312 244.917969 162.222656 245.15625 162.753906 C 245.273438 163.023438 245.386719 163.296875 245.503906 163.570312 C 245.742188 164.132812 245.976562 164.695312 246.199219 165.261719 C 246.296875 165.515625 246.390625 165.769531 246.484375 166.023438 C 246.648438 166.457031 246.820312 166.890625 246.976562 167.328125 L 358.066406 129.6875 C 344.769531 90.863281 318.328125 57.421875 283.546875 35.460938 C 258.398438 19.578125 229.53125 10.074219 200.054688 7.960938 C 199.976562 7.953125 199.894531 7.945312 199.816406 7.945312 C 199.207031 9.464844 198.566406 10.972656 197.941406 12.480469 Z M 249.796875 44.296875 C 251.472656 40.878906 255.617188 39.460938 259.039062 41.136719 C 269.058594 46.054688 278.644531 52.046875 287.535156 58.953125 C 300.539062 69.054688 311.886719 80.949219 321.253906 94.308594 C 322.3125 95.816406 322.71875 97.648438 322.398438 99.464844 C 322.082031 101.28125 321.074219 102.863281 319.5625 103.925781 C 318.363281 104.765625 316.976562 105.1875 315.597656 105.1875 C 314.105469 105.1875 312.617188 104.699219 311.367188 103.726562 C 310.824219 103.304688 310.347656 102.804688 309.949219 102.234375 C 301.371094 90.007812 290.980469 79.113281 279.066406 69.855469 C 270.914062 63.527344 262.132812 58.035156 252.957031 53.535156 C 249.539062 51.855469 248.121094 47.710938 249.796875 44.296875 Z M 245.152344 37.195312 C 245.953125 38.855469 246.054688 40.730469 245.445312 42.472656 C 244.835938 44.210938 243.582031 45.609375 241.917969 46.410156 C 240.972656 46.863281 239.957031 47.09375 238.933594 47.09375 C 238.164062 47.09375 237.390625 46.964844 236.644531 46.703125 C 231.328125 44.835938 225.839844 43.257812 220.332031 42.003906 C 219.335938 41.777344 218.429688 41.347656 217.628906 40.726562 C 215.515625 39.089844 214.535156 36.347656 215.128906 33.742188 C 215.535156 31.945312 216.621094 30.410156 218.183594 29.429688 C 219.742188 28.445312 221.59375 28.132812 223.390625 28.539062 C 229.40625 29.90625 235.402344 31.632812 241.214844 33.671875 C 242.957031 34.28125 244.351562 35.53125 245.152344 37.195312 Z M 73.964844 47.074219 C 97.199219 28.507812 124.992188 15.859375 154.386719 10.480469 C 154.5 10.457031 154.617188 10.4375 154.734375 10.414062 C 156.738281 13.152344 158.410156 16.15625 159.652344 19.476562 C 160.96875 22.992188 161.695312 26.625 161.632812 30.390625 C 161.566406 34.226562 160.410156 37.96875 159.457031 41.652344 C 158.433594 45.613281 157.546875 49.710938 157.835938 53.832031 C 158.148438 58.222656 159.648438 62.320312 161.710938 66.171875 C 165.679688 73.574219 171.695312 79.636719 175.734375 86.996094 C 179.464844 93.761719 181.65625 101.414062 182.625 109.050781 C 183.292969 114.3125 183.46875 119.617188 183.21875 124.921875 C 183.199219 124.929688 183.167969 124.929688 183.148438 124.929688 C 182.90625 124.945312 182.664062 124.964844 182.425781 124.984375 C 182.171875 125 181.921875 125.019531 181.671875 125.039062 C 180.871094 125.105469 180.074219 125.1875 179.28125 125.285156 C 179.101562 125.308594 178.921875 125.332031 178.742188 125.355469 C 177.867188 125.46875 176.996094 125.59375 176.136719 125.742188 C 175.476562 125.859375 174.820312 125.984375 174.167969 126.117188 C 173.917969 126.167969 173.671875 126.226562 173.425781 126.28125 C 173.023438 126.367188 172.625 126.453125 172.226562 126.546875 C 171.886719 126.628906 171.554688 126.71875 171.21875 126.804688 C 170.910156 126.882812 170.601562 126.957031 170.292969 127.039062 C 169.9375 127.136719 169.585938 127.242188 169.230469 127.34375 C 168.949219 127.425781 168.660156 127.507812 168.378906 127.59375 C 168.019531 127.703125 167.667969 127.820312 167.3125 127.933594 C 167.035156 128.023438 166.757812 128.109375 166.480469 128.203125 C 166.128906 128.324219 165.78125 128.453125 165.433594 128.578125 C 165.15625 128.675781 164.878906 128.769531 164.605469 128.875 C 164.261719 129.003906 163.925781 129.136719 163.585938 129.269531 C 163.304688 129.382812 163.023438 129.492188 162.746094 129.605469 C 162.417969 129.738281 162.09375 129.882812 161.765625 130.023438 C 161.480469 130.144531 161.195312 130.265625 160.910156 130.390625 C 160.597656 130.53125 160.285156 130.679688 159.972656 130.828125 C 159.679688 130.960938 159.390625 131.097656 159.101562 131.238281 C 158.800781 131.382812 158.5 131.535156 158.203125 131.6875 C 157.90625 131.835938 157.609375 131.984375 157.316406 132.136719 C 157.03125 132.289062 156.746094 132.445312 156.460938 132.597656 C 156.160156 132.765625 155.859375 132.925781 155.558594 133.097656 C 155.289062 133.25 155.019531 133.410156 154.75 133.566406 C 154.441406 133.746094 154.136719 133.925781 153.832031 134.109375 C 153.574219 134.265625 153.316406 134.429688 153.0625 134.589844 C 152.753906 134.785156 152.445312 134.976562 152.140625 135.175781 C 151.894531 135.335938 151.648438 135.503906 151.40625 135.667969 C 151.09375 135.875 150.785156 136.082031 150.476562 136.296875 C 150.246094 136.460938 150.011719 136.628906 149.78125 136.792969 C 149.46875 137.019531 149.160156 137.242188 148.851562 137.472656 C 148.628906 137.636719 148.410156 137.808594 148.1875 137.976562 C 147.992188 138.128906 147.789062 138.277344 147.59375 138.429688 Z M 87.738281 320.761719 C 82.847656 323.410156 77.824219 326.015625 73.144531 329.097656 C 73.082031 329.046875 73.023438 328.996094 72.957031 328.945312 C 46.601562 307.617188 26.859375 279.359375 15.835938 247.183594 L 126.933594 209.535156 C 127.097656 210.003906 127.277344 210.464844 127.453125 210.929688 C 127.523438 211.121094 127.589844 211.316406 127.664062 211.507812 C 131.867188 222.335938 138.890625 231.738281 148.121094 238.832031 C 146.765625 240.097656 145.347656 241.289062 143.863281 242.414062 C 139.039062 246.078125 133.910156 249.492188 130.5 254.621094 C 127.28125 259.484375 126.597656 265.203125 126.511719 270.90625 C 126.433594 276.210938 126.621094 281.363281 125.058594 286.492188 C 123.578125 291.347656 120.765625 295.78125 117.496094 299.609375 C 109.464844 309.035156 98.46875 314.949219 87.738281 320.761719 Z M 299.941406 329.796875 C 276.226562 348.753906 247.804688 361.515625 217.707031 366.71875 C 196.015625 370.464844 174.113281 370.257812 152.613281 366.105469 C 157.378906 359.015625 163.359375 352.707031 168.949219 346.253906 C 172.835938 341.765625 177.238281 337.410156 180.40625 332.359375 C 183.480469 327.46875 183.417969 321.976562 182.957031 316.433594 C 182.484375 310.632812 181.917969 304.777344 180.371094 299.144531 C 178.800781 293.398438 175.84375 288.230469 173.125 282.964844 C 170.917969 278.667969 168.976562 274.089844 168.867188 269.191406 C 168.765625 264.222656 171.273438 260.8125 174.796875 257.558594 C 176.855469 255.664062 178.808594 253.75 180.625 251.746094 C 180.808594 251.769531 180.988281 251.789062 181.171875 251.804688 C 181.449219 251.828125 181.730469 251.84375 182.011719 251.867188 C 182.253906 251.886719 182.496094 251.90625 182.742188 251.921875 C 183.222656 251.953125 183.699219 251.976562 184.179688 251.996094 C 184.429688 252.007812 184.675781 252.019531 184.921875 252.027344 C 185.414062 252.042969 185.902344 252.050781 186.390625 252.054688 C 186.566406 252.054688 186.742188 252.0625 186.914062 252.0625 C 186.96875 252.0625 187.019531 252.058594 187.074219 252.058594 C 187.917969 252.058594 188.765625 252.039062 189.609375 252.003906 C 189.648438 252.003906 189.683594 252 189.726562 252 C 190.511719 251.964844 191.296875 251.910156 192.078125 251.847656 C 192.300781 251.828125 192.519531 251.808594 192.738281 251.789062 C 193.367188 251.730469 193.992188 251.664062 194.617188 251.585938 C 194.851562 251.558594 195.082031 251.53125 195.316406 251.5 C 196.0625 251.402344 196.804688 251.289062 197.546875 251.164062 C 197.621094 251.152344 197.695312 251.140625 197.769531 251.128906 C 198.878906 250.9375 199.976562 250.710938 201.066406 250.460938 C 201.269531 250.417969 201.476562 250.375 201.675781 250.328125 C 202.015625 250.246094 202.347656 250.15625 202.683594 250.070312 C 203 249.992188 203.316406 249.914062 203.632812 249.828125 C 203.910156 249.753906 204.183594 249.667969 204.460938 249.589844 C 204.828125 249.484375 205.199219 249.382812 205.566406 249.269531 C 205.804688 249.195312 206.042969 249.117188 206.285156 249.039062 C 206.683594 248.914062 207.085938 248.785156 207.480469 248.652344 C 207.695312 248.578125 207.910156 248.5 208.125 248.421875 C 208.539062 248.277344 208.957031 248.128906 209.371094 247.972656 C 209.574219 247.898438 209.773438 247.816406 209.976562 247.738281 C 210.398438 247.574219 210.820312 247.410156 211.234375 247.238281 C 211.433594 247.15625 211.628906 247.070312 211.824219 246.988281 C 212.242188 246.8125 212.660156 246.632812 213.074219 246.449219 C 213.269531 246.359375 213.464844 246.265625 213.660156 246.175781 C 214.070312 245.988281 214.476562 245.796875 214.882812 245.601562 C 215.082031 245.503906 215.28125 245.398438 215.480469 245.300781 C 215.875 245.105469 216.265625 244.90625 216.65625 244.703125 C 216.867188 244.589844 217.074219 244.476562 217.285156 244.363281 C 217.65625 244.160156 218.027344 243.957031 218.398438 243.75 C 218.621094 243.621094 218.84375 243.492188 219.066406 243.363281 C 219.414062 243.160156 219.757812 242.957031 220.101562 242.75 C 220.34375 242.601562 220.585938 242.449219 220.828125 242.296875 C 221.140625 242.097656 221.457031 241.902344 221.765625 241.699219 C 222.03125 241.523438 222.292969 241.347656 222.554688 241.171875 C 222.835938 240.980469 223.117188 240.792969 223.394531 240.597656 C 223.683594 240.398438 223.964844 240.191406 224.253906 239.988281 C 224.496094 239.8125 224.738281 239.636719 224.980469 239.457031 C 225.292969 239.222656 225.601562 238.984375 225.914062 238.742188 C 226.046875 238.640625 226.183594 238.539062 226.320312 238.433594 Z M 6.039062 192.722656 L 123.347656 190.414062 C 123.488281 194.96875 124.128906 199.519531 125.253906 203.953125 L 11.828125 233.867188 C 8.3125 220.398438 6.367188 206.566406 6.039062 192.722656 Z M 362.082031 143 C 365.59375 156.46875 367.539062 170.300781 367.871094 184.148438 L 250.558594 186.457031 C 250.414062 181.898438 249.777344 177.351562 248.652344 172.914062 Z M 362.082031 143 " fill-opacity="1" fill-rule="nonzero"/><path fill="#fbf8c9" d="M 239.515625 221.628906 C 240.480469 220.101562 241.382812 218.527344 242.199219 216.945312 C 245.640625 210.296875 247.824219 203.171875 248.699219 195.769531 C 249.777344 186.652344 248.785156 177.21875 245.832031 168.484375 C 241.289062 155.046875 232.164062 143.464844 220.144531 135.871094 C 210.136719 129.554688 198.652344 126.261719 186.992188 126.261719 C 183.460938 126.261719 179.914062 126.566406 176.386719 127.175781 C 169.226562 128.410156 162.335938 130.898438 156.066406 134.476562 C 153.21875 136.101562 150.496094 137.953125 147.933594 140.019531 C 142.621094 144.300781 138.066406 149.425781 134.390625 155.246094 C 133.425781 156.773438 132.523438 158.347656 131.710938 159.921875 C 128.269531 166.578125 126.078125 173.703125 125.207031 181.105469 C 124.132812 190.222656 125.121094 199.65625 128.074219 208.382812 C 132.621094 221.828125 141.742188 233.410156 153.761719 241 C 166.800781 249.234375 182.34375 252.320312 197.523438 249.695312 C 207.949219 247.894531 217.789062 243.453125 225.976562 236.851562 C 231.285156 232.566406 235.84375 227.445312 239.515625 221.628906 Z M 216.902344 207.347656 C 211.851562 215.347656 203.984375 220.902344 194.757812 222.984375 C 192.140625 223.574219 189.503906 223.867188 186.886719 223.867188 C 180.269531 223.867188 173.773438 222.003906 168.042969 218.382812 C 160.042969 213.332031 154.488281 205.46875 152.402344 196.242188 C 150.320312 187.011719 151.953125 177.527344 157.003906 169.523438 C 167.429688 153.011719 189.347656 148.058594 205.867188 158.484375 C 213.867188 163.535156 219.417969 171.402344 221.503906 180.628906 C 223.585938 189.859375 221.953125 199.347656 216.902344 207.347656 Z M 216.902344 207.347656 " fill-opacity="1" fill-rule="nonzero"/><path fill="#ffffff" d="M 159.652344 19.476562 C 158.410156 16.15625 156.742188 13.152344 154.734375 10.414062 C 155.222656 10.328125 155.707031 10.242188 156.203125 10.152344 C 170.605469 7.667969 185.277344 6.917969 199.816406 7.945312 C 199.207031 9.460938 198.566406 10.972656 197.941406 12.476562 C 196.511719 15.914062 195.320312 19.492188 195.675781 23.261719 C 196.03125 27.097656 197.863281 30.738281 199.621094 34.109375 C 204.125 42.773438 208.726562 51.390625 213.257812 60.046875 C 216.988281 67.160156 220.546875 74.433594 221.777344 82.449219 C 222.363281 86.335938 222.226562 90.40625 221.238281 94.226562 C 220.171875 98.355469 218.238281 102.207031 217.394531 106.398438 C 215.855469 114 217.34375 121.878906 218.933594 129.332031 C 219.246094 130.800781 219.601562 132.382812 219.894531 134.003906 C 219.894531 134.015625 219.894531 134.023438 219.898438 134.03125 C 208.808594 127.3125 196.042969 124.175781 183.21875 124.9375 C 183.21875 124.933594 183.21875 124.925781 183.21875 124.921875 C 183.46875 119.617188 183.292969 114.3125 182.625 109.050781 C 181.65625 101.414062 179.460938 93.761719 175.734375 86.996094 C 171.695312 79.636719 165.679688 73.574219 161.710938 66.171875 C 159.648438 62.320312 158.148438 58.222656 157.835938 53.832031 C 157.546875 49.710938 158.433594 45.613281 159.457031 41.652344 C 160.410156 37.96875 161.566406 34.226562 161.628906 30.390625 C 161.695312 26.625 160.96875 22.992188 159.652344 19.476562 Z M 168.949219 346.253906 C 172.835938 341.765625 177.238281 337.410156 180.40625 332.359375 C 183.480469 327.46875 183.417969 321.976562 182.957031 316.433594 C 182.484375 310.632812 181.917969 304.777344 180.371094 299.144531 C 178.800781 293.398438 175.84375 288.230469 173.125 282.964844 C 170.917969 278.667969 168.976562 274.089844 168.867188 269.191406 C 168.765625 264.222656 171.273438 260.8125 174.796875 257.558594 C 176.855469 255.664062 178.808594 253.75 180.625 251.746094 C 170.882812 250.773438 161.421875 247.554688 152.984375 242.230469 C 151.308594 241.171875 149.695312 240.03125 148.132812 238.824219 C 148.128906 238.828125 148.125 238.832031 148.121094 238.832031 C 146.761719 240.097656 145.347656 241.289062 143.863281 242.414062 C 139.039062 246.078125 133.910156 249.492188 130.5 254.625 C 127.28125 259.484375 126.597656 265.203125 126.511719 270.90625 C 126.429688 276.210938 126.621094 281.363281 125.058594 286.496094 C 123.574219 291.347656 120.761719 295.78125 117.492188 299.609375 C 109.464844 309.035156 98.46875 314.949219 87.738281 320.761719 C 82.847656 323.410156 77.824219 326.015625 73.144531 329.097656 C 78.597656 333.496094 84.378906 337.636719 90.359375 341.40625 C 109.480469 353.476562 130.328125 361.769531 152.308594 366.050781 C 152.410156 366.070312 152.511719 366.085938 152.613281 366.105469 C 157.378906 359.015625 163.359375 352.707031 168.949219 346.253906 Z M 194.4375 221.570312 C 185.585938 223.566406 176.488281 222 168.816406 217.15625 C 161.144531 212.3125 155.820312 204.769531 153.820312 195.921875 C 151.824219 187.070312 153.390625 177.972656 158.230469 170.300781 C 164.6875 160.082031 175.730469 154.476562 187.011719 154.476562 C 193.207031 154.476562 199.472656 156.167969 205.089844 159.710938 C 212.761719 164.558594 218.085938 172.101562 220.085938 180.949219 C 222.085938 189.800781 220.515625 198.898438 215.671875 206.570312 C 210.828125 214.242188 203.285156 219.570312 194.4375 221.570312 Z M 162.96875 173.289062 C 154.617188 186.515625 158.585938 204.066406 171.808594 212.417969 C 176.398438 215.316406 181.597656 216.808594 186.898438 216.808594 C 188.996094 216.808594 191.109375 216.574219 193.203125 216.101562 C 200.59375 214.433594 206.890625 209.988281 210.933594 203.582031 C 214.980469 197.175781 216.289062 189.574219 214.621094 182.183594 C 212.953125 174.792969 208.503906 168.496094 202.097656 164.449219 C 195.691406 160.402344 188.089844 159.097656 180.703125 160.765625 C 173.3125 162.4375 167.015625 166.882812 162.96875 173.289062 Z M 253.597656 52.230469 C 262.859375 56.773438 271.726562 62.316406 279.953125 68.707031 C 291.984375 78.054688 302.476562 89.054688 311.136719 101.402344 C 311.453125 101.851562 311.828125 102.246094 312.257812 102.578125 C 314.15625 104.054688 316.757812 104.117188 318.730469 102.734375 C 319.921875 101.898438 320.714844 100.648438 320.96875 99.214844 C 321.21875 97.78125 320.898438 96.335938 320.0625 95.144531 C 310.777344 81.902344 299.535156 70.113281 286.640625 60.101562 C 277.832031 53.253906 268.328125 47.316406 258.398438 42.445312 C 257.628906 42.066406 256.8125 41.886719 256.007812 41.886719 C 253.988281 41.886719 252.050781 43.007812 251.101562 44.9375 C 249.78125 47.632812 250.898438 50.90625 253.597656 52.230469 Z M 240.734375 35.042969 C 234.972656 33.019531 229.03125 31.308594 223.070312 29.957031 C 222.664062 29.863281 222.253906 29.820312 221.851562 29.820312 C 220.835938 29.820312 219.839844 30.105469 218.957031 30.660156 C 217.726562 31.433594 216.867188 32.644531 216.546875 34.0625 C 216.078125 36.117188 216.851562 38.285156 218.519531 39.578125 C 219.152344 40.070312 219.867188 40.410156 220.652344 40.585938 C 226.21875 41.851562 231.757812 43.445312 237.125 45.328125 C 238.5 45.8125 239.976562 45.730469 241.289062 45.097656 C 242.601562 44.46875 243.589844 43.363281 244.074219 41.988281 C 244.554688 40.617188 244.472656 39.136719 243.84375 37.824219 C 243.210938 36.511719 242.105469 35.523438 240.734375 35.042969 Z M 240.734375 35.042969 " fill-opacity="1" fill-rule="nonzero"/><g clip-path="url(#c86ffd1593)"><path fill="#000000" d="M 343.488281 94.890625 C 343.429688 94.789062 343.367188 94.6875 343.308594 94.585938 C 342.683594 93.546875 342.050781 92.511719 341.402344 91.484375 C 341.371094 91.4375 341.34375 91.390625 341.3125 91.34375 C 340.824219 90.566406 340.34375 89.789062 339.84375 89.023438 C 316.921875 53.769531 283.328125 28.054688 243.917969 15.179688 C 243.894531 15.171875 243.867188 15.164062 243.839844 15.152344 C 243.070312 14.902344 242.304688 14.652344 241.53125 14.414062 C 228.09375 10.1875 214.195312 7.515625 200.15625 6.511719 C 199.8125 6.488281 199.46875 6.46875 199.125 6.449219 C 165.6875 4.140625 132.511719 11.078125 102.675781 26.695312 C 91.996094 32.242188 81.863281 38.839844 72.484375 46.398438 C 72.441406 46.433594 72.417969 46.480469 72.386719 46.523438 C 39.765625 72.761719 17.34375 109.117188 8.546875 150.621094 C -0.0273438 191.078125 5.214844 232.3125 23.242188 268.835938 C 31.027344 284.726562 41.0625 299.363281 53.058594 312.3125 C 71.5625 332.394531 94.214844 347.929688 119.617188 357.957031 C 120.675781 358.382812 121.742188 358.785156 122.808594 359.1875 C 122.910156 359.226562 123.007812 359.265625 123.109375 359.304688 C 132.488281 362.820312 142.144531 365.554688 152.03125 367.480469 C 160.324219 369.09375 168.667969 370.117188 177.042969 370.566406 C 177.355469 370.585938 177.664062 370.605469 177.976562 370.621094 C 178.15625 370.632812 178.335938 370.636719 178.515625 370.644531 C 181.453125 370.785156 184.386719 370.863281 187.320312 370.863281 C 215.871094 370.863281 243.953125 364.125 269.625 351.007812 C 280.894531 345.292969 291.566406 338.417969 301.425781 330.472656 C 301.472656 330.433594 301.5 330.378906 301.53125 330.332031 C 334.148438 304.097656 356.5625 267.746094 365.359375 226.25 C 374.980469 180.855469 367.203125 134.488281 343.488281 94.890625 Z M 217.707031 366.71875 C 196.015625 370.464844 174.113281 370.257812 152.613281 366.105469 C 152.511719 366.085938 152.410156 366.070312 152.308594 366.050781 C 130.328125 361.769531 109.480469 353.476562 90.359375 341.40625 C 84.378906 337.636719 78.597656 333.496094 73.144531 329.097656 C 73.082031 329.046875 73.023438 328.996094 72.957031 328.945312 C 46.601562 307.617188 26.859375 279.359375 15.835938 247.183594 L 126.933594 209.535156 C 127.097656 210.003906 127.277344 210.464844 127.453125 210.929688 C 127.523438 211.121094 127.589844 211.316406 127.664062 211.507812 C 131.867188 222.335938 138.890625 231.738281 148.121094 238.832031 C 148.125 238.828125 148.128906 238.828125 148.132812 238.824219 C 149.695312 240.027344 151.308594 241.171875 152.984375 242.226562 C 161.421875 247.554688 170.882812 250.773438 180.628906 251.742188 C 180.625 251.746094 180.625 251.746094 180.625 251.746094 C 180.808594 251.765625 180.988281 251.789062 181.171875 251.804688 C 181.453125 251.828125 181.730469 251.84375 182.011719 251.867188 C 182.257812 251.886719 182.5 251.902344 182.742188 251.921875 C 183.222656 251.953125 183.703125 251.976562 184.183594 251.996094 C 184.429688 252.007812 184.675781 252.019531 184.921875 252.027344 C 185.414062 252.042969 185.902344 252.046875 186.390625 252.050781 C 186.566406 252.054688 186.742188 252.0625 186.914062 252.0625 C 186.96875 252.0625 187.019531 252.058594 187.074219 252.058594 C 187.917969 252.054688 188.765625 252.039062 189.609375 252.003906 C 189.648438 252.003906 189.6875 252 189.726562 251.996094 C 190.511719 251.960938 191.296875 251.910156 192.082031 251.847656 C 192.300781 251.828125 192.519531 251.808594 192.742188 251.785156 C 193.367188 251.730469 193.992188 251.660156 194.617188 251.585938 C 194.851562 251.558594 195.082031 251.53125 195.316406 251.5 C 196.0625 251.398438 196.804688 251.289062 197.546875 251.164062 C 197.621094 251.148438 197.695312 251.140625 197.769531 251.128906 C 198.878906 250.9375 199.976562 250.710938 201.070312 250.460938 C 201.273438 250.414062 201.476562 250.375 201.675781 250.324219 C 202.015625 250.246094 202.347656 250.15625 202.683594 250.070312 C 203 249.988281 203.316406 249.914062 203.632812 249.828125 C 203.910156 249.753906 204.183594 249.667969 204.460938 249.589844 C 204.828125 249.484375 205.199219 249.382812 205.566406 249.269531 C 205.804688 249.195312 206.042969 249.117188 206.285156 249.039062 C 206.683594 248.910156 207.085938 248.785156 207.480469 248.648438 C 207.695312 248.578125 207.910156 248.496094 208.125 248.421875 C 208.539062 248.277344 208.957031 248.128906 209.371094 247.972656 C 209.574219 247.898438 209.777344 247.816406 209.980469 247.738281 C 210.398438 247.574219 210.820312 247.410156 211.238281 247.238281 C 211.433594 247.15625 211.628906 247.070312 211.824219 246.988281 C 212.242188 246.8125 212.660156 246.632812 213.074219 246.449219 C 213.269531 246.359375 213.464844 246.265625 213.664062 246.175781 C 214.070312 245.984375 214.476562 245.796875 214.882812 245.601562 C 215.082031 245.503906 215.28125 245.398438 215.484375 245.300781 C 215.875 245.101562 216.269531 244.90625 216.65625 244.699219 C 216.867188 244.589844 217.074219 244.472656 217.285156 244.359375 C 217.65625 244.160156 218.03125 243.957031 218.398438 243.75 C 218.621094 243.621094 218.84375 243.488281 219.066406 243.359375 C 219.414062 243.160156 219.757812 242.957031 220.101562 242.746094 C 220.347656 242.597656 220.585938 242.445312 220.828125 242.296875 C 221.140625 242.097656 221.457031 241.902344 221.765625 241.699219 C 222.03125 241.523438 222.292969 241.347656 222.558594 241.171875 C 222.835938 240.980469 223.117188 240.792969 223.394531 240.597656 C 223.683594 240.398438 223.96875 240.191406 224.253906 239.984375 C 224.496094 239.808594 224.738281 239.632812 224.980469 239.457031 C 225.292969 239.222656 225.601562 238.980469 225.914062 238.742188 C 226.046875 238.636719 226.1875 238.539062 226.320312 238.433594 L 299.945312 329.796875 C 276.222656 348.753906 247.804688 361.515625 217.707031 366.71875 Z M 12.125 235.289062 L 125.628906 205.359375 C 125.886719 206.296875 126.171875 207.230469 126.472656 208.15625 L 15.3125 245.828125 C 14.144531 242.34375 13.078125 238.828125 12.125 235.289062 Z M 154.386719 10.480469 C 154.5 10.457031 154.617188 10.4375 154.734375 10.414062 C 155.222656 10.328125 155.707031 10.242188 156.203125 10.152344 C 170.605469 7.667969 185.277344 6.917969 199.816406 7.945312 C 199.898438 7.945312 199.976562 7.953125 200.058594 7.957031 C 229.53125 10.074219 258.402344 19.578125 283.550781 35.460938 C 318.328125 57.421875 344.769531 90.863281 358.070312 129.6875 L 246.976562 167.328125 C 246.824219 166.890625 246.652344 166.457031 246.488281 166.023438 C 246.390625 165.769531 246.300781 165.515625 246.199219 165.261719 C 245.980469 164.695312 245.742188 164.132812 245.503906 163.570312 C 245.386719 163.296875 245.277344 163.023438 245.15625 162.753906 C 244.921875 162.222656 244.671875 161.695312 244.421875 161.171875 C 244.285156 160.878906 244.152344 160.585938 244.007812 160.296875 C 243.761719 159.800781 243.503906 159.3125 243.246094 158.824219 C 243.085938 158.515625 242.925781 158.207031 242.757812 157.898438 C 242.503906 157.4375 242.238281 156.984375 241.972656 156.527344 C 241.789062 156.207031 241.605469 155.882812 241.410156 155.5625 C 241.152344 155.132812 240.878906 154.710938 240.609375 154.289062 C 240.398438 153.957031 240.1875 153.617188 239.96875 153.289062 C 239.703125 152.890625 239.425781 152.5 239.152344 152.105469 C 238.914062 151.761719 238.679688 151.417969 238.4375 151.082031 C 238.167969 150.710938 237.886719 150.347656 237.605469 149.980469 C 237.34375 149.632812 237.085938 149.285156 236.816406 148.945312 C 236.539062 148.59375 236.25 148.257812 235.96875 147.914062 C 235.679688 147.566406 235.398438 147.21875 235.105469 146.878906 C 234.820312 146.546875 234.523438 146.226562 234.230469 145.898438 C 233.925781 145.5625 233.628906 145.21875 233.316406 144.886719 C 233.011719 144.566406 232.699219 144.253906 232.390625 143.9375 C 232.074219 143.617188 231.765625 143.289062 231.445312 142.976562 C 231.109375 142.648438 230.761719 142.332031 230.417969 142.007812 C 230.113281 141.722656 229.808594 141.425781 229.496094 141.144531 C 229.097656 140.785156 228.679688 140.4375 228.269531 140.085938 C 228.003906 139.855469 227.742188 139.621094 227.472656 139.394531 C 226.90625 138.925781 226.328125 138.476562 225.746094 138.027344 C 225.621094 137.929688 225.503906 137.828125 225.378906 137.734375 C 223.941406 136.644531 222.457031 135.613281 220.925781 134.644531 C 220.765625 134.542969 220.605469 134.441406 220.453125 134.347656 C 220.265625 134.230469 220.082031 134.113281 219.894531 134.003906 C 219.894531 134.015625 219.898438 134.023438 219.898438 134.03125 C 208.808594 127.316406 196.042969 124.175781 183.21875 124.9375 C 183.21875 124.933594 183.21875 124.929688 183.21875 124.921875 C 183.199219 124.929688 183.167969 124.929688 183.148438 124.929688 C 182.90625 124.945312 182.664062 124.964844 182.425781 124.984375 C 182.171875 125 181.921875 125.019531 181.671875 125.039062 C 180.871094 125.105469 180.074219 125.1875 179.28125 125.285156 C 179.101562 125.308594 178.921875 125.332031 178.742188 125.355469 C 177.867188 125.46875 176.996094 125.59375 176.136719 125.742188 C 175.476562 125.859375 174.820312 125.984375 174.167969 126.117188 C 173.917969 126.167969 173.671875 126.226562 173.425781 126.28125 C 173.023438 126.367188 172.625 126.453125 172.226562 126.546875 C 171.886719 126.628906 171.554688 126.71875 171.21875 126.804688 C 170.910156 126.882812 170.601562 126.957031 170.292969 127.039062 C 169.9375 127.136719 169.585938 127.242188 169.230469 127.34375 C 168.949219 127.425781 168.660156 127.507812 168.378906 127.59375 C 168.019531 127.703125 167.667969 127.820312 167.3125 127.933594 C 167.035156 128.023438 166.757812 128.109375 166.480469 128.203125 C 166.128906 128.324219 165.78125 128.453125 165.433594 128.578125 C 165.15625 128.675781 164.878906 128.773438 164.605469 128.875 C 164.261719 129.003906 163.925781 129.136719 163.585938 129.269531 C 163.304688 129.382812 163.023438 129.492188 162.746094 129.605469 C 162.417969 129.738281 162.09375 129.882812 161.765625 130.023438 C 161.480469 130.144531 161.195312 130.265625 160.910156 130.390625 C 160.597656 130.53125 160.285156 130.679688 159.972656 130.828125 C 159.679688 130.960938 159.390625 131.097656 159.101562 131.238281 C 158.800781 131.382812 158.5 131.535156 158.203125 131.6875 C 157.90625 131.835938 157.609375 131.984375 157.316406 132.136719 C 157.03125 132.289062 156.746094 132.445312 156.460938 132.597656 C 156.160156 132.765625 155.859375 132.925781 155.558594 133.097656 C 155.289062 133.25 155.019531 133.410156 154.75 133.566406 C 154.441406 133.746094 154.136719 133.925781 153.832031 134.109375 C 153.574219 134.265625 153.316406 134.429688 153.0625 134.589844 C 152.753906 134.785156 152.445312 134.976562 152.140625 135.175781 C 151.894531 135.335938 151.648438 135.503906 151.40625 135.667969 C 151.09375 135.875 150.785156 136.082031 150.476562 136.296875 C 150.246094 136.460938 150.011719 136.628906 149.78125 136.792969 C 149.46875 137.019531 149.160156 137.242188 148.851562 137.472656 C 148.628906 137.636719 148.410156 137.808594 148.1875 137.976562 C 147.992188 138.128906 147.789062 138.277344 147.59375 138.429688 L 73.964844 47.074219 C 97.199219 28.507812 124.992188 15.859375 154.386719 10.480469 Z M 367.871094 184.148438 L 250.558594 186.457031 C 250.414062 181.898438 249.777344 177.351562 248.652344 172.914062 L 362.082031 143 C 365.59375 156.46875 367.539062 170.300781 367.871094 184.148438 Z M 125.253906 203.953125 L 11.828125 233.867188 C 8.3125 220.398438 6.367188 206.566406 6.039062 192.722656 L 123.347656 190.414062 C 123.488281 194.96875 124.128906 199.519531 125.253906 203.953125 Z M 225.972656 236.851562 C 217.785156 243.453125 207.949219 247.894531 197.523438 249.695312 C 182.34375 252.320312 166.800781 249.234375 153.761719 241 C 141.742188 233.410156 132.617188 221.828125 128.074219 208.382812 C 125.121094 199.65625 124.128906 190.222656 125.207031 181.105469 C 126.078125 173.703125 128.265625 166.578125 131.707031 159.921875 C 132.523438 158.347656 133.421875 156.773438 134.386719 155.246094 C 138.0625 149.425781 142.621094 144.300781 147.933594 140.019531 C 150.492188 137.953125 153.214844 136.101562 156.066406 134.476562 C 162.335938 130.898438 169.222656 128.410156 176.386719 127.175781 C 179.914062 126.566406 183.457031 126.261719 186.988281 126.261719 C 198.648438 126.261719 210.132812 129.554688 220.140625 135.875 C 232.164062 143.464844 241.289062 155.046875 245.832031 168.484375 C 248.785156 177.21875 249.773438 186.65625 248.699219 195.769531 C 247.824219 203.171875 245.636719 210.296875 242.195312 216.945312 C 241.382812 218.527344 240.480469 220.101562 239.515625 221.628906 C 235.84375 227.445312 231.285156 232.566406 225.972656 236.851562 Z M 248.277344 171.511719 C 248.019531 170.574219 247.734375 169.640625 247.433594 168.714844 L 358.546875 131.058594 C 359.714844 134.550781 360.757812 138.066406 361.703125 141.597656 Z M 72.855469 48.019531 L 146.464844 139.355469 C 141.269531 143.644531 136.789062 148.71875 133.160156 154.46875 C 132.171875 156.035156 131.25 157.644531 130.417969 159.257812 C 126.894531 166.0625 124.65625 173.355469 123.761719 180.933594 C 123.449219 183.589844 123.3125 186.273438 123.339844 188.960938 L 5.996094 191.269531 C 5.8125 177.871094 7.121094 164.355469 9.96875 150.921875 C 18.65625 109.9375 40.734375 74.019531 72.855469 48.019531 Z M 301.042969 328.847656 L 227.441406 237.515625 C 232.640625 233.222656 237.117188 228.148438 240.746094 222.402344 C 241.730469 220.839844 242.65625 219.230469 243.488281 217.609375 C 247.011719 210.808594 249.25 203.515625 250.140625 195.941406 C 250.457031 193.28125 250.59375 190.597656 250.566406 187.910156 L 367.789062 185.605469 C 368.546875 239.691406 345.105469 293.097656 301.042969 328.847656 Z M 205.867188 158.484375 C 189.347656 148.058594 167.429688 153.011719 157.003906 169.527344 C 151.953125 177.527344 150.316406 187.015625 152.402344 196.242188 C 154.488281 205.46875 160.042969 213.332031 168.039062 218.382812 C 173.773438 222.003906 180.269531 223.871094 186.886719 223.871094 C 189.503906 223.871094 192.140625 223.578125 194.757812 222.984375 C 203.984375 220.902344 211.847656 215.347656 216.898438 207.347656 C 221.953125 199.347656 223.585938 189.859375 221.5 180.628906 C 219.417969 171.402344 213.863281 163.535156 205.867188 158.484375 Z M 168.816406 217.15625 C 161.144531 212.3125 155.820312 204.769531 153.820312 195.921875 C 151.824219 187.070312 153.390625 177.972656 158.230469 170.300781 C 164.6875 160.082031 175.730469 154.476562 187.011719 154.476562 C 193.207031 154.476562 199.472656 156.167969 205.089844 159.710938 C 212.761719 164.558594 218.085938 172.101562 220.085938 180.949219 C 222.085938 189.800781 220.515625 198.898438 215.671875 206.570312 C 210.828125 214.242188 203.285156 219.570312 194.4375 221.570312 C 185.585938 223.566406 176.488281 222 168.816406 217.15625 Z M 171.808594 212.421875 C 176.398438 215.316406 181.597656 216.8125 186.898438 216.8125 C 188.996094 216.8125 191.109375 216.578125 193.203125 216.101562 C 200.59375 214.433594 206.890625 209.988281 210.933594 203.582031 C 214.980469 197.175781 216.289062 189.574219 214.621094 182.183594 C 212.953125 174.792969 208.503906 168.496094 202.097656 164.449219 C 195.691406 160.40625 188.089844 159.097656 180.703125 160.765625 C 173.3125 162.4375 167.015625 166.886719 162.96875 173.292969 C 154.617188 186.515625 158.585938 204.066406 171.808594 212.421875 Z M 192.882812 214.683594 C 190.644531 215.191406 188.386719 215.40625 186.152344 215.34375 C 183.136719 215.257812 180.160156 214.667969 177.335938 213.578125 C 175.695312 212.949219 174.105469 212.152344 172.585938 211.191406 C 171.390625 210.4375 170.277344 209.601562 169.246094 208.703125 C 160.277344 200.871094 157.507812 187.914062 162.5625 177.078125 C 162.636719 176.921875 162.707031 176.761719 162.785156 176.601562 C 162.808594 176.554688 162.832031 176.5 162.855469 176.449219 C 163 176.164062 163.152344 175.882812 163.308594 175.597656 C 163.375 175.476562 163.433594 175.355469 163.5 175.234375 C 163.621094 175.019531 163.753906 174.8125 163.878906 174.601562 C 163.988281 174.421875 164.085938 174.242188 164.199219 174.066406 C 168.035156 167.988281 174.011719 163.769531 181.023438 162.183594 C 181.496094 162.078125 181.96875 161.984375 182.441406 161.902344 C 182.582031 161.878906 182.722656 161.863281 182.863281 161.839844 C 183.195312 161.789062 183.527344 161.738281 183.859375 161.699219 C 184.035156 161.679688 184.210938 161.664062 184.386719 161.648438 C 184.683594 161.617188 184.980469 161.59375 185.277344 161.574219 C 185.464844 161.558594 185.652344 161.550781 185.84375 161.542969 C 186.128906 161.53125 186.414062 161.523438 186.703125 161.519531 C 186.875 161.519531 187.050781 161.519531 187.222656 161.519531 C 187.753906 161.523438 188.285156 161.539062 188.8125 161.574219 C 188.84375 161.578125 188.871094 161.578125 188.902344 161.582031 C 189.457031 161.621094 190.007812 161.679688 190.554688 161.757812 C 190.707031 161.777344 190.859375 161.800781 191.007812 161.824219 C 191.289062 161.863281 191.566406 161.917969 191.84375 161.972656 C 192.011719 162.003906 192.183594 162.027344 192.351562 162.0625 C 192.460938 162.085938 192.574219 162.101562 192.683594 162.128906 C 193.21875 162.246094 193.75 162.378906 194.28125 162.53125 C 194.410156 162.566406 194.542969 162.609375 194.675781 162.648438 C 195.101562 162.777344 195.523438 162.917969 195.945312 163.066406 C 196.078125 163.113281 196.210938 163.160156 196.34375 163.210938 C 196.863281 163.40625 197.378906 163.613281 197.886719 163.839844 C 197.976562 163.882812 198.066406 163.925781 198.160156 163.96875 C 198.585938 164.167969 199.011719 164.375 199.433594 164.597656 C 199.570312 164.667969 199.707031 164.742188 199.84375 164.816406 C 200.339844 165.085938 200.828125 165.367188 201.308594 165.671875 C 201.3125 165.671875 201.316406 165.675781 201.320312 165.679688 C 201.679688 165.90625 202.035156 166.144531 202.378906 166.382812 C 202.398438 166.398438 202.421875 166.410156 202.441406 166.425781 C 202.621094 166.550781 202.796875 166.6875 202.976562 166.820312 C 203.164062 166.960938 203.359375 167.097656 203.546875 167.246094 C 203.636719 167.316406 203.722656 167.390625 203.8125 167.464844 C 204.085938 167.679688 204.351562 167.898438 204.613281 168.121094 C 204.625 168.132812 204.640625 168.148438 204.652344 168.15625 C 213.769531 176.105469 216.492188 189.355469 211.105469 200.300781 C 211.085938 200.339844 211.070312 200.378906 211.050781 200.417969 C 210.898438 200.722656 210.734375 201.027344 210.566406 201.328125 C 210.511719 201.429688 210.460938 201.535156 210.40625 201.632812 C 210.257812 201.894531 210.097656 202.152344 209.941406 202.410156 C 209.863281 202.539062 209.789062 202.675781 209.707031 202.804688 C 209.191406 203.621094 208.632812 204.398438 208.046875 205.144531 C 205.652344 208.179688 202.667969 210.628906 199.269531 212.371094 C 197.269531 213.394531 195.132812 214.175781 192.882812 214.683594 Z M 252.957031 53.535156 C 262.128906 58.035156 270.914062 63.527344 279.0625 69.855469 C 290.980469 79.113281 301.371094 90.007812 309.945312 102.234375 C 310.34375 102.804688 310.820312 103.304688 311.363281 103.726562 C 312.613281 104.695312 314.101562 105.183594 315.59375 105.183594 C 316.976562 105.183594 318.363281 104.765625 319.5625 103.925781 C 321.074219 102.863281 322.078125 101.28125 322.398438 99.464844 C 322.71875 97.648438 322.308594 95.816406 321.25 94.308594 C 311.882812 80.949219 300.539062 69.054688 287.53125 58.949219 C 278.644531 52.046875 269.054688 46.050781 259.035156 41.136719 C 255.617188 39.460938 251.472656 40.878906 249.796875 44.296875 C 248.121094 47.710938 249.539062 51.855469 252.957031 53.535156 Z M 251.101562 44.9375 C 252.046875 43.007812 253.988281 41.886719 256.003906 41.886719 C 256.808594 41.886719 257.625 42.066406 258.398438 42.441406 C 268.328125 47.3125 277.832031 53.253906 286.640625 60.097656 C 299.53125 70.113281 310.777344 81.902344 320.0625 95.140625 C 320.898438 96.332031 321.21875 97.777344 320.96875 99.214844 C 320.714844 100.648438 319.921875 101.898438 318.726562 102.734375 C 316.757812 104.117188 314.15625 104.054688 312.253906 102.578125 C 311.828125 102.246094 311.449219 101.847656 311.136719 101.398438 C 302.476562 89.050781 291.984375 78.050781 279.953125 68.707031 C 271.726562 62.316406 262.859375 56.773438 253.597656 52.230469 C 250.898438 50.90625 249.78125 47.632812 251.101562 44.9375 Z M 218.183594 29.429688 C 216.621094 30.410156 215.535156 31.941406 215.128906 33.738281 C 214.535156 36.34375 215.515625 39.085938 217.628906 40.726562 C 218.429688 41.347656 219.335938 41.777344 220.332031 42.003906 C 225.839844 43.253906 231.328125 44.835938 236.644531 46.699219 C 237.390625 46.960938 238.164062 47.09375 238.933594 47.09375 C 239.957031 47.09375 240.972656 46.863281 241.917969 46.40625 C 243.582031 45.609375 244.832031 44.210938 245.445312 42.46875 C 246.054688 40.730469 245.953125 38.855469 245.152344 37.191406 C 244.351562 35.53125 242.957031 34.277344 241.214844 33.667969 C 235.402344 31.632812 229.40625 29.90625 223.390625 28.539062 C 221.59375 28.128906 219.742188 28.445312 218.183594 29.429688 Z M 244.074219 41.988281 C 243.589844 43.363281 242.601562 44.46875 241.289062 45.097656 C 239.976562 45.730469 238.5 45.8125 237.125 45.328125 C 231.757812 43.445312 226.21875 41.851562 220.652344 40.585938 C 219.867188 40.40625 219.152344 40.070312 218.519531 39.578125 C 216.851562 38.285156 216.078125 36.121094 216.546875 34.0625 C 216.867188 32.644531 217.726562 31.433594 218.957031 30.660156 C 219.839844 30.105469 220.835938 29.820312 221.851562 29.820312 C 222.257812 29.820312 222.664062 29.863281 223.070312 29.957031 C 229.03125 31.308594 234.972656 33.023438 240.734375 35.042969 C 242.105469 35.523438 243.210938 36.511719 243.84375 37.824219 C 244.472656 39.136719 244.554688 40.617188 244.074219 41.988281 Z M 244.074219 41.988281 " fill-opacity="1" fill-rule="nonzero"/></g></svg>